<svg width="37" height="37" viewBox="0 0 37 37" fill="none" xmlns="http://www.w3.org/2000/svg">
<rect width="37" height="37" fill="black"/>
<path d="M11.4746 24.08C9.36256 24.08 7.74656 23.5947 6.62656 22.624C5.50656 21.6427 4.94656 20.192 4.94656 18.272C4.94656 16.3627 5.50656 14.9173 6.62656 13.936C7.74656 12.9547 9.36256 12.4693 11.4746 12.48L17.2346 12.512V14.56H11.6506C10.2639 14.56 9.23456 14.8533 8.56256 15.44C7.89056 16.0267 7.55456 16.9707 7.55456 18.272C7.55456 19.5733 7.89056 20.5227 8.56256 21.12C9.23456 21.7067 10.2639 22 11.6506 22H17.3946V24.08H11.4746Z" fill="white"/>
<path d="M18.5128 24V12.56H20.4008L25.5208 12.544C27.5901 12.544 29.1955 13.0293 30.3368 14C31.4781 14.9707 32.0488 16.3947 32.0488 18.272C32.0488 20.1493 31.4781 21.5733 30.3368 22.544C29.1955 23.5147 27.5901 24 25.5208 24H18.5128ZM25.3448 14.624H21.0728V21.92H25.3448C26.6888 21.92 27.7075 21.6267 28.4008 21.04C29.0941 20.4533 29.4408 19.5307 29.4408 18.272C29.4408 17.0027 29.0941 16.08 28.4008 15.504C27.7075 14.9173 26.6888 14.624 25.3448 14.624Z" fill="#0033FF"/>
</svg>
